<?xml version="1.0" ?><svg data-name="Your Icons" id="Your_Icons" viewBox="0 0 96 96" xmlns="http://www.w3.org/2000/svg"><defs><style>.cls-1{fill:#336dff;}</style></defs><path class="cls-1" d="M18,60A12,12,0,1,1,30,48,12,12,0,0,1,18,60Zm0-20a8,8,0,1,0,8,8A8,8,0,0,0,18,40Z"/><path class="cls-1" d="M78,30A12,12,0,1,1,90,18,12,12,0,0,1,78,30Zm0-20a8,8,0,1,0,8,8A8,8,0,0,0,78,10Z"/><path class="cls-1" d="M78,90A12,12,0,1,1,90,78,12,12,0,0,1,78,90Zm0-20a8,8,0,1,0,8,8A8,8,0,0,0,78,70Z"/><path class="cls-1" d="M26.94,45.53a2,2,0,0,1-.89-3.79L68.17,20.68A2,2,0,0,1,70,24.26L27.84,45.32A2.08,2.08,0,0,1,26.94,45.53Z"/><path class="cls-1" d="M69.06,75.53a2.08,2.08,0,0,1-.9-.21L26.05,54.26a2,2,0,0,1,1.79-3.58L70,71.74a2,2,0,0,1-.89,3.79Z"/></svg>