<?xml version="1.0" ?><svg viewBox="0 0 64 64" xmlns="http://www.w3.org/2000/svg"><defs><style>.cls-1{fill:#aaddb4;}.cls-2{fill:#92d39d;}.cls-3{fill:#94d8e5;}.cls-4{fill:#655e66;}.cls-5{fill:#544f56;}.cls-6{fill:#756d78;}</style></defs><g id="Seaweed"><path class="cls-1" d="M15.89,44.71a23.08,23.08,0,0,1,.67-6.2c1.13-5.83,1-6.93-1.46-10.13S13.93,21,17,18.24h0c-.19,3.24,2,7.53,6.67,9.29a3.27,3.27,0,0,1,2,2.1l7.1,9.48-3.22,9.28-11.3-.56Z" id="path21189-4"/><path class="cls-1" d="M36.64,40c1.16-3.62.16-7.69,5.06-11.44,4.61-3.52,5.37-5,5.24-8.12,2.92,2.69,3.78,8.11,1.6,11.26-4.13,6-5.08,7.81-3.51,12.27a3.16,3.16,0,0,1,.12.37l-.84,4.78-4.66-.2S32.93,47.84,36.64,40Z" id="path23483-5"/><path class="cls-2" d="M40.76,29.37c-3.83,3.52-3,7.28-4.12,10.65-3.71,7.82,3,8.92,3,8.92l1,0,1.15-1.86A3.55,3.55,0,0,0,42,43.83a76.13,76.13,0,0,1-2.88-7.52c-.4-1.28.35-3.62,1.51-6.6Z" id="path88454"/><path class="cls-2" d="M23,27.24c-.15.25-.27.47-.45.76-2.73,4.51-4.81,8.83-3.85,16.87a7.49,7.49,0,0,0,.77,3l10.13.5,3.22-9.28-7.1-9.48a3.27,3.27,0,0,0-2-2.1C23.45,27.44,23.22,27.34,23,27.24Z" id="path86235"/><path class="cls-3" d="M43.81,16.5a2.22,2.22,0,1,1-2.22-2.21A2.21,2.21,0,0,1,43.81,16.5Z" id="path223306-3-5-3"/><path class="cls-1" d="M22.22,44.69c-1-7.66.6-10.3,3.36-14.85,3.4-5.62,3.65-6.82,2.35-11S29.52,10.68,33.8,9c-1.43,3.28-.8,8.57,3.37,12.18s-3.28,10.29-1.44,16.19a78.63,78.63,0,0,0,3,7.89s-2.52,4.11-2.8,4.43S22.38,51.37,22.22,44.69Z" id="path23134-8"/><path class="cls-3" d="M24.52,11.58A2.59,2.59,0,1,1,21.94,9,2.59,2.59,0,0,1,24.52,11.58Z" id="path24428-1"/><path class="cls-4" d="M42.92,44a7.67,7.67,0,0,0-4.8,1.66l1.62,9.86c1,0,2,0,3.18,0,4.29,0,7.77.56,7.77-3.74A7.76,7.76,0,0,0,42.92,44Z" id="path552278-5"/><path class="cls-4" d="M19.08,44a7.76,7.76,0,0,0-7.77,7.76c0,4.3,3.48,3.74,7.77,3.74,1.13,0,2.21,0,3.18,0l1.62-9.86A7.67,7.67,0,0,0,19.08,44Z" id="path186329-1-5"/><path class="cls-5" d="M42.92,44a7.63,7.63,0,0,0-2.26.33,7.76,7.76,0,0,1,5.51,7.43c0,3.15-1.87,3.69-4.55,3.76l1.3,0c4.29,0,7.77.56,7.77-3.74A7.76,7.76,0,0,0,42.92,44ZM39.74,55.54h0c.32,0,.64,0,1,0Z" id="path556800-4"/><path class="cls-5" d="M21.83,44.53A9.68,9.68,0,0,0,18,52.3a4.73,4.73,0,0,0,.95,3.23h.18c1.13,0,2.21,0,3.18,0l1.62-9.86A7.69,7.69,0,0,0,21.83,44.53Z" id="path556802-7"/><path class="cls-6" d="M40.71,52.3C40.71,57.66,36.37,57,31,57s-9.71.69-9.71-4.67a9.71,9.71,0,1,1,19.42,0Z" id="path186788-5-6"/><path class="cls-4" d="M31,42.58a9.78,9.78,0,0,0-2.18.25,9.73,9.73,0,0,1,7.55,9.47c0,3.74-2.12,4.53-5.21,4.67,5.29,0,9.56.64,9.56-4.67A9.72,9.72,0,0,0,31,42.58ZM26.65,57H26.5c.72,0,1.5,0,2.32,0Z" id="path554882-5"/><path d="M44.81,16.5a3.22,3.22,0,1,0-3.22,3.22A3.22,3.22,0,0,0,44.81,16.5Zm-4.43,0a1.22,1.22,0,0,1,2.43,0,1.22,1.22,0,1,1-2.43,0Z"/><path d="M44.23,56.54l1.2,0c2.1,0,3.89-.17,5.07-1.33a4.58,4.58,0,0,0,1.19-3.44A8.76,8.76,0,0,0,46,43.6c-1.35-3.91-.66-5.43,3.41-11.31,2.43-3.5,1.6-9.49-1.74-12.57a1,1,0,0,0-1.1-.17,1,1,0,0,0-.58.95c.11,2.57-.27,3.78-4.85,7.29a11.38,11.38,0,0,0-4.63,7.92c-.12-2,.71-4.18,1.54-6.29,1.28-3.24,2.6-6.59-.18-9-3.77-3.26-4.41-8-3.11-11a1,1,0,0,0-1.28-1.33c-5.16,2-7.82,6.56-6.45,11,1,3.38,1.1,4.48-1.29,8.61a4.26,4.26,0,0,0-1.64-1.09c-4.18-1.58-6.19-5.37-6-8.3a1,1,0,0,0-.56-1,1,1,0,0,0-1.1.15c-3.79,3.38-4.64,8.11-2.06,11.5,2.18,2.87,2.39,3.57,1.27,9.32a26.22,26.22,0,0,0-.69,5.83,8.74,8.74,0,0,0-4.58,7.65,4.58,4.58,0,0,0,1.19,3.44c1.18,1.16,3,1.33,5.07,1.33l1.2,0h4.1c1.69,1.5,4.38,1.48,7.49,1.43h3.28l1.5,0c2.47,0,4.59-.19,6-1.45C41.78,56.56,42.13,56.52,44.23,56.54ZM42.3,29.38c3.37-2.58,4.89-4.21,5.42-6.27,1.35,2.54,1.46,5.94,0,8-3.72,5.37-5.11,7.77-4,12a7.17,7.17,0,0,0-.81-.08,8.54,8.54,0,0,0-2.58.4c.25-5.77,2-8.32,2.7-9.31a4.26,4.26,0,0,0,.32-.49,1,1,0,0,0-.42-1.33,1,1,0,0,0-1.35.4l-.18.27c-.73,1-2.5,3.55-3,8.91-.26-.66-.51-1.3-.74-1.92a22.16,22.16,0,0,0,.57-2.83C38.67,34.42,39.06,31.86,42.3,29.38ZM28.89,18.49c-1-3.19.83-5.92,3.34-7.56a12.31,12.31,0,0,0,4.28,11c1.62,1.4.92,3.48-.37,6.75-1.09,2.77-2.33,5.91-1.37,9,.55,1.73,1.24,3.63,2.07,5.66a10.51,10.51,0,0,0-5.27-1.72c-1.73-5.77-.54-8.53.53-10.95l.29-.65a1,1,0,0,0-1.84-.79l-.27.63c-1.07,2.4-2.47,5.68-.76,11.85a10.64,10.64,0,0,0-5.75,2.71c-.21-.12-.4-.26-.61-.37-.79-6.94.67-9.38,3.28-13.69C30,24.49,30.29,23.05,28.89,18.49ZM17.54,38.7c1.18-6.06,1-7.49-1.64-10.92-1.75-2.31-1.15-5.06.35-7.18a11.27,11.27,0,0,0,7.09,7.87,2.19,2.19,0,0,1,1.24,1.09c-.58,1-1.1,1.84-1.57,2.71a29.14,29.14,0,0,1-2.57-3.45,1,1,0,1,0-1.75,1,31.29,31.29,0,0,0,3.38,4.48,18.4,18.4,0,0,0-1,9,8.82,8.82,0,0,0-2-.25,8.93,8.93,0,0,0-2.21.31A29.63,29.63,0,0,1,17.54,38.7Zm.2,15.84c-2.17,0-4,.06-4.84-.73a2.77,2.77,0,0,1-.59-2A6.77,6.77,0,0,1,19.08,45a6.7,6.7,0,0,1,3.34.88,10.6,10.6,0,0,0-2.13,6.39,7.58,7.58,0,0,0,.31,2.24H17.74ZM32.67,56,31,56l-1.67,0c-2.76,0-5.15.07-6.23-1a3.64,3.64,0,0,1-.81-2.69,8.71,8.71,0,1,1,17.42,0A3.64,3.64,0,0,1,38.9,55C37.82,56.05,35.43,56,32.67,56Zm8.73-1.45a7.58,7.58,0,0,0,.31-2.24,10.6,10.6,0,0,0-2.13-6.39A6.7,6.7,0,0,1,42.92,45a6.77,6.77,0,0,1,6.77,6.76,2.77,2.77,0,0,1-.59,2c-.81.79-2.68.76-4.84.73Z"/><path d="M25.52,11.58a3.59,3.59,0,1,0-3.58,3.59A3.59,3.59,0,0,0,25.52,11.58Zm-5.17,0a1.59,1.59,0,1,1,1.59,1.59A1.59,1.59,0,0,1,20.35,11.58Z"/></g></svg>