<?xml version="1.0" ?><svg enable-background="new 0 0 64 64" id="Filled_Outline_1_" version="1.1" viewBox="0 0 64 64" xml:space="preserve" xmlns="http://www.w3.org/2000/svg" xmlns:xlink="http://www.w3.org/1999/xlink"><title/><desc/><g><g><path d="M53,31c4.418,0,8-3.582,8-8v-1l-0.481,0.32C58.877,23.416,56.946,24,54.972,24H48l0.485-0.485    c2.25-2.25,3.515-5.303,3.515-8.485V12h-3.029c-3.183,0-6.235,1.264-8.485,3.515L40,16V9.028c0-1.974,0.584-3.904,1.68-5.547L42,3    h-1c-4.418,0-8,3.582-8,8v1.029c0,0.026,0.004,0.051,0.004,0.077l-1.623-2.759C30.477,7.81,30,6.06,30,4.277V3l-2.441,2.441    c-2.661,2.661-3.108,6.817-1.073,9.983L32,24l8,8l8.576,5.513c3.166,2.035,7.322,1.589,9.983-1.073L61,34h-1.277    c-1.783,0-3.533-0.477-5.07-1.381l-2.759-1.623c0.026,0,0.051,0.004,0.077,0.004H53z" fill="#009245"/><path d="M32.53,11.31C31.79,11.75,30.92,12,30,12c-2,0-3.73-1.18-4.53-2.88c0.34-1.36,1.05-2.64,2.09-3.68L30,3    v1.28c0,1.78,0.48,3.53,1.38,5.07L32.53,11.31z" fill="#009245"/><path d="M61,34l-2.44,2.44c-1.04,1.04-2.32,1.75-3.68,2.09C53.18,37.73,52,36,52,34c0-0.92,0.25-1.79,0.69-2.53    l1.96,1.15c1.54,0.9,3.29,1.38,5.07,1.38H61z" fill="#009245"/><path d="M5.674,58.326C13.452,66.104,41.464,54.536,45,51c9.899-9.899,1-21,1-21L33,17c0,0-10.101-7.899-20,2    C9.464,22.536-2.104,50.548,5.674,58.326z" fill="#EB2335"/><path d="M42,3l-0.32,0.48C40.58,5.12,40,7.05,40,9.03V14c-3.2,0-5.9-2.14-6.73-5.07C34.18,5.51,37.3,3,41,3H42z" fill="#009245"/><path d="M61,22v1c0,3.7-2.51,6.82-5.93,7.73C52.14,29.9,50,27.2,50,24h4.97c1.98,0,3.91-0.58,5.55-1.68L61,22z" fill="#009245"/><path d="M52,12v3.03c0,2.06-0.53,4.07-1.52,5.84c-3.75-0.64-6.71-3.6-7.35-7.35C44.9,12.53,46.91,12,48.97,12H52z" fill="#009245"/><path d="M23,17c-3.31,0-8.33,3.15-10,9c-2,7,2.59,11.83,4,9c5-10,12-6,13-11C30.65,20.75,29,17,23,17z M14.7,32.7    c-0.46,0.47-0.93,0.76-1.03,0.66c-0.1-0.11,0.19-0.57,0.66-1.03c0.46-0.47,0.92-0.76,1.03-0.66C15.46,31.77,15.17,32.24,14.7,32.7    z M17.53,24.22c-0.47,0.46-0.93,0.76-1.03,0.65c-0.1-0.1,0.19-0.56,0.66-1.03c0.46-0.46,0.92-0.76,1.03-0.65    C18.29,23.29,18,23.75,17.53,24.22z M26.01,21.39c-0.46,0.46-0.92,0.76-1.02,0.65c-0.11-0.1,0.19-0.56,0.65-1.03    c0.47-0.46,0.93-0.76,1.03-0.65C26.77,20.46,26.48,20.92,26.01,21.39z" fill="#FF5968"/><path d="M45,51c-3.54,3.54-31.55,15.1-39.33,7.33c-1.08-1.08-1.79-2.56-2.19-4.31C12.22,60.37,38.57,49.43,42,46    c5.97-5.97,5.1-12.37,3.48-16.52L46,30C46,30,54.9,41.1,45,51z M32.19,27.56c-1.17,1.18-2.44,1.81-2.83,1.42s0.25-1.66,1.42-2.83    c1.17-1.17,2.44-1.8,2.83-1.41S33.36,26.39,32.19,27.56z M32.33,26.01c-0.1-0.1-0.57,0.2-1.03,0.66    c-0.47,0.47-0.76,0.93-0.66,1.03c0.11,0.1,0.57-0.19,1.03-0.66C32.14,26.58,32.43,26.12,32.33,26.01z M37.85,33.22    c-1.17,1.17-2.44,1.81-2.83,1.42c-0.39-0.39,0.24-1.66,1.42-2.83c1.17-1.17,2.43-1.81,2.82-1.42    C39.65,30.78,39.02,32.05,37.85,33.22z M37.99,31.67c-0.11-0.1-0.57,0.19-1.03,0.66c-0.47,0.46-0.76,0.92-0.66,1.03    c0.1,0.1,0.56-0.19,1.03-0.66C37.79,32.24,38.09,31.77,37.99,31.67z M18.05,24.74c-1.17,1.17-2.44,1.8-2.83,1.41    c-0.39-0.39,0.24-1.66,1.42-2.83c1.17-1.17,2.43-1.8,2.82-1.41C19.85,22.3,19.22,23.56,18.05,24.74z M18.19,23.19    c-0.11-0.11-0.57,0.19-1.03,0.65c-0.47,0.47-0.76,0.93-0.66,1.03c0.1,0.11,0.56-0.19,1.03-0.65C18,23.75,18.29,23.29,18.19,23.19z     M26.54,21.91c-1.18,1.17-2.44,1.8-2.83,1.41c-0.39-0.39,0.24-1.65,1.41-2.83c1.17-1.17,2.44-1.8,2.83-1.41    C28.34,19.47,27.71,20.74,26.54,21.91z M26.67,20.36c-0.1-0.11-0.56,0.19-1.03,0.65c-0.46,0.47-0.76,0.93-0.65,1.03    c0.1,0.11,0.56-0.19,1.02-0.65C26.48,20.92,26.77,20.46,26.67,20.36z M23.71,30.39c-1.17,1.17-2.44,1.81-2.83,1.42    s0.24-1.66,1.41-2.83c1.17-1.17,2.44-1.81,2.83-1.42C25.51,27.96,24.88,29.22,23.71,30.39z M23.84,28.84    c-0.1-0.1-0.56,0.19-1.03,0.66c-0.46,0.47-0.76,0.93-0.65,1.03c0.1,0.1,0.56-0.19,1.03-0.66C23.65,29.41,23.95,28.95,23.84,28.84z     M29.36,36.05c-1.17,1.17-2.43,1.8-2.82,1.41c-0.39-0.39,0.24-1.65,1.41-2.82c1.17-1.18,2.44-1.81,2.83-1.42    C31.17,33.61,30.54,34.88,29.36,36.05z M29.5,34.5c-0.1-0.1-0.56,0.19-1.03,0.66c-0.47,0.46-0.76,0.92-0.66,1.03    c0.11,0.1,0.57-0.19,1.03-0.66C29.31,35.06,29.6,34.6,29.5,34.5z M35.02,41.71c-1.17,1.17-2.44,1.8-2.83,1.41s0.25-1.66,1.42-2.83    c1.17-1.17,2.43-1.8,2.83-1.41C36.83,39.27,36.19,40.54,35.02,41.71z M35.16,40.16c-0.11-0.11-0.57,0.19-1.03,0.65    c-0.47,0.47-0.76,0.93-0.66,1.03c0.1,0.11,0.56-0.19,1.03-0.65C34.97,40.72,35.26,40.26,35.16,40.16z M12.39,41.71    c-1.17,1.17-2.43,1.8-2.83,1.41c-0.39-0.39,0.25-1.66,1.42-2.83c1.17-1.17,2.44-1.8,2.83-1.41C14.2,39.27,13.56,40.54,12.39,41.71    z M12.53,40.16c-0.1-0.11-0.56,0.19-1.03,0.65c-0.47,0.47-0.76,0.93-0.66,1.03c0.11,0.11,0.57-0.19,1.03-0.65    C12.34,40.72,12.63,40.26,12.53,40.16z M18.05,47.36c-1.17,1.18-2.44,1.81-2.83,1.42c-0.39-0.39,0.24-1.66,1.42-2.83    c1.17-1.17,2.43-1.8,2.82-1.41C19.85,44.93,19.22,46.19,18.05,47.36z M18.19,45.81c-0.11-0.1-0.57,0.19-1.03,0.66    c-0.47,0.47-0.76,0.93-0.66,1.03c0.1,0.1,0.56-0.19,1.03-0.66C18,46.38,18.29,45.92,18.19,45.81z M23.71,53.02    c-1.17,1.17-2.44,1.81-2.83,1.42c-0.39-0.4,0.24-1.66,1.41-2.83c1.17-1.17,2.44-1.81,2.83-1.42    C25.51,50.58,24.88,51.85,23.71,53.02z M23.84,51.47c-0.1-0.1-0.56,0.19-1.03,0.66c-0.46,0.46-0.76,0.92-0.65,1.03    c0.1,0.1,0.56-0.19,1.03-0.66C23.65,52.03,23.95,51.57,23.84,51.47z M43.51,38.88c-1.18,1.17-2.44,1.8-2.83,1.41    s0.24-1.65,1.41-2.83c1.17-1.17,2.44-1.8,2.83-1.41C45.31,36.44,44.68,37.71,43.51,38.88z M43.64,37.33    c-0.1-0.1-0.56,0.19-1.03,0.66c-0.46,0.46-0.76,0.92-0.65,1.02c0.1,0.11,0.56-0.19,1.03-0.65C43.45,37.89,43.75,37.43,43.64,37.33    z M40.68,47.36c-1.17,1.18-2.44,1.81-2.83,1.42c-0.39-0.39,0.24-1.66,1.41-2.83c1.18-1.17,2.44-1.8,2.83-1.41    C42.48,44.93,41.85,46.19,40.68,47.36z M40.81,45.81c-0.1-0.1-0.56,0.19-1.03,0.66c-0.46,0.47-0.76,0.93-0.65,1.03    c0.1,0.1,0.56-0.19,1.03-0.66C40.62,46.38,40.92,45.92,40.81,45.81z M15.22,33.22c-1.17,1.17-2.44,1.81-2.83,1.42    c-0.39-0.39,0.25-1.66,1.42-2.83s2.44-1.81,2.83-1.42C17.03,30.78,16.39,32.05,15.22,33.22z M15.36,31.67    c-0.11-0.1-0.57,0.19-1.03,0.66c-0.47,0.46-0.76,0.92-0.66,1.03c0.1,0.1,0.57-0.19,1.03-0.66C15.17,32.24,15.46,31.77,15.36,31.67    z M20.88,38.88c-1.17,1.17-2.44,1.8-2.83,1.41s0.24-1.65,1.41-2.83c1.18-1.17,2.44-1.8,2.83-1.41    C22.68,36.44,22.05,37.71,20.88,38.88z M21.01,37.33c-0.1-0.1-0.56,0.19-1.02,0.66c-0.47,0.46-0.76,0.92-0.66,1.02    c0.1,0.11,0.56-0.19,1.03-0.65C20.82,37.89,21.12,37.43,21.01,37.33z M26.54,44.54c-1.18,1.17-2.44,1.8-2.83,1.41    c-0.39-0.39,0.24-1.66,1.41-2.83s2.44-1.8,2.83-1.41C28.34,42.1,27.71,43.36,26.54,44.54z M26.67,42.99    c-0.1-0.11-0.56,0.19-1.03,0.65c-0.46,0.47-0.76,0.93-0.65,1.03c0.1,0.1,0.56-0.19,1.02-0.66C26.48,43.55,26.77,43.09,26.67,42.99    z M9.56,50.19C8.39,51.36,7.13,52,6.74,51.61s0.24-1.66,1.41-2.83c1.17-1.17,2.44-1.81,2.83-1.42    C11.37,47.75,10.74,49.02,9.56,50.19z M9.7,48.64c-0.1-0.1-0.56,0.19-1.03,0.66c-0.46,0.46-0.76,0.93-0.66,1.03    c0.11,0.1,0.57-0.19,1.03-0.66C9.51,49.21,9.8,48.75,9.7,48.64z M15.22,55.85c-1.17,1.17-2.44,1.8-2.83,1.41    c-0.39-0.39,0.25-1.65,1.42-2.82c1.17-1.18,2.44-1.81,2.83-1.42C17.03,53.41,16.39,54.68,15.22,55.85z M15.36,54.3    c-0.11-0.1-0.57,0.19-1.03,0.66c-0.47,0.46-0.76,0.92-0.66,1.03c0.1,0.1,0.57-0.2,1.03-0.66C15.17,54.86,15.46,54.4,15.36,54.3z     M32.19,50.19c-1.17,1.17-2.44,1.81-2.83,1.42s0.25-1.66,1.42-2.83c1.17-1.17,2.44-1.81,2.83-1.42S33.36,49.02,32.19,50.19z     M32.33,48.64c-0.1-0.1-0.57,0.19-1.03,0.66c-0.47,0.46-0.76,0.93-0.66,1.03c0.11,0.1,0.57-0.19,1.03-0.66    C32.14,49.21,32.43,48.75,32.33,48.64z" fill="#C12034"/><path d="M32.53,11.31C31.79,11.75,30.92,12,30,12c-2,0-3.73-1.18-4.53-2.88c0.34-1.36,1.05-2.64,2.09-3.68L30,3    v1.28c0,1.78,0.48,3.53,1.38,5.07L32.53,11.31z M41,3c-3.7,0-6.82,2.51-7.73,5.93C34.1,11.86,36.8,14,40,14V9.03    c0-1.98,0.58-3.91,1.68-5.55L42,3H41z M60.52,22.32c-1.64,1.1-3.57,1.68-5.55,1.68H50c0,3.2,2.14,5.9,5.07,6.73    C58.49,29.82,61,26.7,61,23v-1L60.52,22.32z M59.72,34c-1.78,0-3.53-0.48-5.07-1.38l-1.96-1.15C52.25,32.21,52,33.08,52,34    c0,2,1.18,3.73,2.88,4.53c1.36-0.34,2.64-1.05,3.68-2.09L61,34H59.72z M48.97,12c-2.06,0-4.07,0.53-5.84,1.52    c0.64,3.75,3.6,6.71,7.35,7.35C51.47,19.1,52,17.09,52,15.03V12H48.97z" fill="#39B54A"/></g><path d="M62,23v-1c0-0.369-0.203-0.708-0.528-0.881c-0.324-0.174-0.719-0.155-1.026,0.049l-0.481,0.321   C58.481,22.477,56.755,23,54.972,23h-4.715C52.029,20.729,53,17.956,53,15.029V12c0-0.552-0.448-1-1-1h-3.029   c-2.927,0-5.7,0.971-7.971,2.743V9.028c0-1.783,0.523-3.509,1.512-4.993l0.32-0.481c0.204-0.307,0.223-0.701,0.049-1.026   C42.708,2.203,42.369,2,42,2h-1c-4.23,0-7.778,2.937-8.736,6.876L32.243,8.84C31.43,7.458,31,5.881,31,4.277V3   c0-0.404-0.244-0.769-0.617-0.924c-0.375-0.155-0.804-0.069-1.09,0.217l-2.441,2.441c-1.67,1.669-2.605,3.891-2.635,6.253l2,0.025   c0.023-1.838,0.751-3.566,2.049-4.865l0.788-0.787c0.157,1.582,0.655,3.117,1.465,4.493l1.499,2.548   c0.029,1.048,0.182,2.073,0.451,3.061c-3.057-1.795-11.748-5.598-20.176,2.829C8.981,21.604-3.51,50.555,4.967,59.033   c2.081,2.081,5.395,2.898,9.261,2.898c11.884,0,28.98-7.726,31.479-10.224c7.837-7.837,4.539-16.459,2.388-20.296   c1.123,0.349,2.299,0.537,3.503,0.571l2.548,1.499c1.376,0.81,2.912,1.309,4.494,1.465l-0.787,0.788   c-1.299,1.298-3.026,2.026-4.865,2.049l0.025,2c2.363-0.03,4.584-0.965,6.253-2.635l2.441-2.441   c0.286-0.286,0.372-0.716,0.217-1.09C61.769,33.244,61.404,33,61,33h-1.277c-1.604,0-3.182-0.43-4.563-1.243l-0.036-0.021   C59.063,30.778,62,27.23,62,23z M48.971,13H51v2.029c0,2.938-1.144,5.701-3.222,7.778l-0.485,0.485   c-1.815,1.815-4.771,1.815-6.586,0c-1.815-1.816-1.815-4.77,0-6.586l0.485-0.485C43.27,14.144,46.032,13,48.971,13z M34,11   c0-3.586,2.711-6.552,6.192-6.954C39.409,5.585,39,7.284,39,9.028v6.589c-1.083,1.234-1.636,2.772-1.651,4.318l-0.128-0.128   C35.144,17.73,34,14.968,34,12.029V11z M44.293,50.293c-1.531,1.531-9.163,5.272-17.635,7.65   c-10.048,2.818-17.25,2.704-20.277-0.324C3.353,54.59,3.238,47.389,6.057,37.342c2.377-8.472,6.119-16.104,7.65-17.635   c3.603-3.603,7.208-4.708,10.278-4.708c4.52,0,7.878,2.397,8.354,2.756l12.912,12.912C45.892,31.483,53.257,41.329,44.293,50.293z    M53,30h-1.029c-2.938,0-5.701-1.144-7.778-3.222l-0.128-0.128c1.546-0.015,3.084-0.568,4.318-1.651h6.589   c1.744,0,3.443-0.409,4.981-1.192C59.552,27.289,56.586,30,53,30z" fill="#28284B"/></g></svg>