<?xml version="1.0" ?><svg xmlns="http://www.w3.org/2000/svg" viewBox="0 0 512 512"><defs><style>.cls-1{fill:#6f9933;}.cls-2{fill:#99ab41;}.cls-3{fill:#932d00;}.cls-4{fill:#8a4011;}.cls-5{fill:#672200;}.cls-6{fill:#060303;}.cls-7{fill:#e5c641;}.cls-8{fill:#ffdc4a;}.cls-9{fill:#4e7124;}.cls-10{fill:#9ca852;}</style></defs><title/><g id="sunflower"><path class="cls-1" d="M256,404a5.965,5.965,0,0,1-2.578-.586c-17.113-8.156-45.33-17.329-54.476-12.186a6,6,0,1,1-5.882-10.458c8.258-4.646,21.59-3.947,40.755,2.135a214.484,214.484,0,0,1,24.77,9.679A6,6,0,0,1,256,404Z"/><path class="cls-1" d="M256,444a6,6,0,0,1-3.927-10.538c1.62-1.4,40.024-34.195,70.009-23.089a6,6,0,0,1-4.168,11.254c-19.419-7.194-48.446,12.656-57.991,20.911A5.973,5.973,0,0,1,256,444Z"/><rect class="cls-2" x="244" y="273" width="24" height="239"/><circle class="cls-3" cx="256" cy="170" r="85.996"/><circle class="cls-4" cx="256" cy="170" r="64.075"/><circle class="cls-5" cx="256" cy="170" r="50.586"/><circle class="cls-6" cx="256" cy="170" r="25.293"/><path class="cls-7" d="M263.246,5.656a10.827,10.827,0,0,0-3.5-4.325,5.937,5.937,0,0,0-7.492,0,10.827,10.827,0,0,0-3.5,4.325c-9.612,20.833-13.9,47.35-16.361,75.819,0,8.73,23.607,13.1,23.607,13.1s23.607-4.365,23.607-13.095C277.147,53.006,272.858,26.489,263.246,5.656Z"/><path class="cls-7" d="M199.8,15.393a10.834,10.834,0,0,0-4.889-2.657,5.938,5.938,0,0,0-6.922,2.867,10.832,10.832,0,0,0-1.578,5.336c-.908,22.925,5.277,49.065,13.9,76.309,3.341,8.065,26.821,3.064,26.821,3.064s20.139-13.067,16.8-21.132C230.765,53.819,216.655,30.962,199.8,15.393Z"/><path class="cls-7" d="M144.915,48.667a10.84,10.84,0,0,0-5.533-.583,5.938,5.938,0,0,0-5.3,5.3,10.84,10.84,0,0,0,.583,5.533c7.935,21.528,23.653,43.311,42.044,65.181,6.173,6.173,25.952-7.433,25.952-7.433s13.606-19.779,7.433-25.952C188.226,72.32,166.443,56.6,144.915,48.667Z"/><path class="cls-7" d="M106.939,100.414a10.832,10.832,0,0,0-5.336,1.578,5.938,5.938,0,0,0-2.867,6.922,10.834,10.834,0,0,0,2.657,4.889c15.569,16.852,38.426,30.962,63.787,44.13,8.065,3.34,21.132-16.8,21.132-16.8s5-23.48-3.064-26.821C156,105.691,129.864,99.506,106.939,100.414Z"/><path class="cls-7" d="M91.656,162.754a10.827,10.827,0,0,0-4.325,3.5,5.937,5.937,0,0,0,0,7.492,10.827,10.827,0,0,0,4.325,3.5c20.833,9.612,47.35,13.9,75.819,16.361,8.73,0,13.1-23.607,13.1-23.607s-4.365-23.607-13.095-23.607C139.006,148.853,112.489,153.142,91.656,162.754Z"/><path class="cls-7" d="M101.393,226.2a10.834,10.834,0,0,0-2.657,4.889,5.938,5.938,0,0,0,2.867,6.922,10.832,10.832,0,0,0,5.336,1.578c22.925.908,49.065-5.277,76.309-13.9,8.065-3.341,3.064-26.821,3.064-26.821s-13.067-20.139-21.132-16.8C139.819,195.235,116.962,209.345,101.393,226.2Z"/><path class="cls-7" d="M134.667,281.085a10.84,10.84,0,0,0-.583,5.533,5.938,5.938,0,0,0,5.3,5.3,10.84,10.84,0,0,0,5.533-.583c21.528-7.935,43.311-23.653,65.181-42.044,6.173-6.173-7.433-25.952-7.433-25.952s-19.779-13.606-25.952-7.433C158.32,237.774,142.6,259.557,134.667,281.085Z"/><path class="cls-7" d="M186.414,319.061a10.832,10.832,0,0,0,1.578,5.336,5.938,5.938,0,0,0,6.922,2.867,10.834,10.834,0,0,0,4.889-2.657c16.852-15.569,30.962-38.426,44.13-63.787,3.34-8.065-16.8-21.132-16.8-21.132s-23.48-5-26.821,3.064C191.691,270,185.506,296.136,186.414,319.061Z"/><path class="cls-7" d="M248.754,334.344a10.827,10.827,0,0,0,3.5,4.325,5.937,5.937,0,0,0,7.492,0,10.827,10.827,0,0,0,3.5-4.325c9.612-20.833,13.9-47.35,16.361-75.819,0-8.73-23.607-13.095-23.607-13.095s-23.607,4.365-23.607,13.095C234.853,286.994,239.142,313.511,248.754,334.344Z"/><path class="cls-7" d="M312.2,324.607a10.834,10.834,0,0,0,4.889,2.657,5.938,5.938,0,0,0,6.922-2.867,10.832,10.832,0,0,0,1.578-5.336c.908-22.925-5.277-49.065-13.9-76.309-3.341-8.065-26.821-3.064-26.821-3.064s-20.139,13.067-16.8,21.132C281.235,286.181,295.345,309.038,312.2,324.607Z"/><path class="cls-7" d="M367.085,291.333a10.84,10.84,0,0,0,5.533.583,5.938,5.938,0,0,0,5.3-5.3,10.84,10.84,0,0,0-.583-5.533c-7.935-21.528-23.653-43.311-42.044-65.181-6.173-6.173-25.952,7.433-25.952,7.433s-13.606,19.779-7.433,25.952C323.774,267.68,345.557,283.4,367.085,291.333Z"/><path class="cls-7" d="M405.061,239.586a10.832,10.832,0,0,0,5.336-1.578,5.938,5.938,0,0,0,2.867-6.922,10.834,10.834,0,0,0-2.657-4.889c-15.569-16.852-38.426-30.962-63.787-44.13-8.065-3.34-21.132,16.8-21.132,16.8s-5,23.48,3.064,26.821C356,234.309,382.136,240.494,405.061,239.586Z"/><path class="cls-7" d="M420.344,177.246a10.827,10.827,0,0,0,4.325-3.5,5.937,5.937,0,0,0,0-7.492,10.827,10.827,0,0,0-4.325-3.5c-20.833-9.612-47.35-13.9-75.819-16.361C335.8,146.393,331.43,170,331.43,170s4.365,23.607,13.095,23.607C372.994,191.147,399.511,186.858,420.344,177.246Z"/><path class="cls-7" d="M410.607,113.8a10.834,10.834,0,0,0,2.657-4.889,5.938,5.938,0,0,0-2.867-6.922,10.832,10.832,0,0,0-5.336-1.578c-22.925-.908-49.065,5.277-76.309,13.9-8.065,3.341-3.064,26.821-3.064,26.821s13.067,20.139,21.132,16.8C372.181,144.765,395.038,130.655,410.607,113.8Z"/><path class="cls-7" d="M377.333,58.915a10.84,10.84,0,0,0,.583-5.533,5.938,5.938,0,0,0-5.3-5.3,10.84,10.84,0,0,0-5.533.583C345.557,56.6,323.774,72.32,301.9,90.711c-6.173,6.173,7.433,25.952,7.433,25.952s19.779,13.606,25.952,7.433C353.68,102.226,369.4,80.443,377.333,58.915Z"/><path class="cls-7" d="M325.586,20.939a10.832,10.832,0,0,0-1.578-5.336,5.938,5.938,0,0,0-6.922-2.867,10.834,10.834,0,0,0-4.889,2.657c-16.852,15.569-30.962,38.426-44.13,63.787-3.34,8.065,16.8,21.132,16.8,21.132s23.48,5,26.821-3.064C320.309,70,326.494,43.864,325.586,20.939Z"/><path class="cls-8" d="M237.757,6.511a10.823,10.823,0,0,0-4.127-3.732,5.937,5.937,0,0,0-7.4,1.158,10.834,10.834,0,0,0-2.789,4.814c-6.276,22.068-6.415,48.929-4.445,77.437,1.349,8.625,25.347,9.288,25.347,9.288s22.648-7.961,21.3-16.586C258.809,51.143,250.473,25.608,237.757,6.511Z"/><path class="cls-8" d="M176.581,25.937a10.827,10.827,0,0,0-5.241-1.869,5.938,5.938,0,0,0-6.4,3.9,10.829,10.829,0,0,0-.735,5.515c2.647,22.79,12.8,47.66,25.527,73.243,4.548,7.452,26.973-1.118,26.973-1.118s17.877-16.022,13.33-23.474C213.111,59.116,195.638,38.714,176.581,25.937Z"/><path class="cls-8" d="M127.5,67.3a10.833,10.833,0,0,0-5.557.278,5.938,5.938,0,0,0-4.415,6.053A10.825,10.825,0,0,0,118.955,79c11.167,20.043,30.063,39.134,51.614,57.9,7.053,5.145,24.491-11.355,24.491-11.355s10.385-21.644,3.332-26.789C173.942,83.969,149.992,71.808,127.5,67.3Z"/><path class="cls-8" d="M97.974,124.29a10.829,10.829,0,0,0-5.027,2.384,5.938,5.938,0,0,0-1.763,7.282,10.826,10.826,0,0,0,3.381,4.419c17.987,14.244,42.75,24.651,69.841,33.741,8.485,2.054,18.282-19.863,18.282-19.863s1.311-23.971-7.173-26.025C147.266,121.92,120.484,119.85,97.974,124.29Z"/><path class="cls-8" d="M92.511,188.243a10.823,10.823,0,0,0-3.732,4.127,5.937,5.937,0,0,0,1.158,7.4,10.834,10.834,0,0,0,4.814,2.789c22.068,6.276,48.929,6.415,77.437,4.445,8.625-1.349,9.288-25.347,9.288-25.347s-7.961-22.648-16.586-21.3C137.143,167.191,111.608,175.527,92.511,188.243Z"/><path class="cls-8" d="M111.937,249.419a10.827,10.827,0,0,0-1.869,5.241,5.938,5.938,0,0,0,3.9,6.4,10.829,10.829,0,0,0,5.515.735c22.79-2.647,47.66-12.8,73.243-25.527,7.452-4.548-1.118-26.973-1.118-26.973s-16.022-17.877-23.474-13.33C145.116,212.889,124.714,230.362,111.937,249.419Z"/><path class="cls-8" d="M153.3,298.5a10.833,10.833,0,0,0,.278,5.557,5.938,5.938,0,0,0,6.053,4.415A10.825,10.825,0,0,0,165,307.045c20.043-11.167,39.134-30.063,57.9-51.614,5.145-7.053-11.355-24.491-11.355-24.491s-21.644-10.385-26.789-3.332C169.969,252.058,157.808,276.008,153.3,298.5Z"/><path class="cls-8" d="M210.29,328.026a10.829,10.829,0,0,0,2.384,5.027,5.938,5.938,0,0,0,7.282,1.763,10.826,10.826,0,0,0,4.419-3.381c14.244-17.987,24.651-42.75,33.741-69.841,2.054-8.485-19.863-18.282-19.863-18.282s-23.971-1.311-26.025,7.173C207.92,278.734,205.85,305.516,210.29,328.026Z"/><path class="cls-8" d="M274.243,333.489a10.823,10.823,0,0,0,4.127,3.732,5.937,5.937,0,0,0,7.4-1.158,10.834,10.834,0,0,0,2.789-4.814c6.276-22.068,6.415-48.929,4.445-77.437-1.349-8.625-25.347-9.288-25.347-9.288s-22.648,7.961-21.3,16.586C253.191,288.857,261.527,314.392,274.243,333.489Z"/><path class="cls-8" d="M335.419,314.063a10.827,10.827,0,0,0,5.241,1.869,5.938,5.938,0,0,0,6.395-3.9,10.829,10.829,0,0,0,.735-5.515c-2.647-22.79-12.8-47.66-25.527-73.243-4.548-7.452-26.973,1.118-26.973,1.118s-17.877,16.022-13.33,23.474C298.889,280.884,316.362,301.286,335.419,314.063Z"/><path class="cls-8" d="M384.5,272.7a10.833,10.833,0,0,0,5.557-.278,5.938,5.938,0,0,0,4.415-6.053A10.825,10.825,0,0,0,393.045,261c-11.167-20.043-30.063-39.134-51.614-57.9-7.053-5.145-24.491,11.355-24.491,11.355s-10.385,21.644-3.332,26.789C338.058,256.031,362.008,268.192,384.5,272.7Z"/><path class="cls-8" d="M414.026,215.71a10.829,10.829,0,0,0,5.027-2.384,5.938,5.938,0,0,0,1.763-7.282,10.826,10.826,0,0,0-3.381-4.419c-17.987-14.244-42.75-24.651-69.841-33.741-8.485-2.054-18.282,19.863-18.282,19.863s-1.311,23.971,7.173,26.025C364.734,218.08,391.516,220.15,414.026,215.71Z"/><path class="cls-8" d="M419.489,151.757a10.823,10.823,0,0,0,3.732-4.127,5.937,5.937,0,0,0-1.158-7.4,10.834,10.834,0,0,0-4.814-2.789c-22.068-6.276-48.929-6.415-77.437-4.445-8.625,1.349-9.288,25.347-9.288,25.347s7.961,22.648,16.586,21.3C374.857,172.809,400.392,164.473,419.489,151.757Z"/><path class="cls-8" d="M400.063,90.581a10.827,10.827,0,0,0,1.869-5.241,5.938,5.938,0,0,0-3.9-6.4,10.829,10.829,0,0,0-5.515-.735c-22.79,2.647-47.66,12.8-73.243,25.527-7.452,4.548,1.118,26.973,1.118,26.973s16.022,17.877,23.474,13.33C366.884,127.111,387.286,109.638,400.063,90.581Z"/><path class="cls-8" d="M358.7,41.5a10.833,10.833,0,0,0-.278-5.557,5.938,5.938,0,0,0-6.053-4.415A10.825,10.825,0,0,0,347,32.955c-20.043,11.167-39.134,30.063-57.9,51.614-5.145,7.053,11.355,24.491,11.355,24.491s21.644,10.385,26.789,3.332C342.031,87.942,354.192,63.992,358.7,41.5Z"/><path class="cls-8" d="M301.71,11.974a10.829,10.829,0,0,0-2.384-5.027,5.938,5.938,0,0,0-7.282-1.763,10.826,10.826,0,0,0-4.419,3.381c-14.244,17.987-24.651,42.75-33.741,69.841-2.054,8.485,19.863,18.282,19.863,18.282S297.718,98,299.772,89.515C304.08,61.266,306.15,34.484,301.71,11.974Z"/><path class="cls-9" d="M223.78,390c-.3.45-1.2.49-2.78,0-6-1.88-17.92,2.3-31.74,8.11-.31.12-.62.25-.93.38-5.19,2.19-10.62,4.59-16.1,6.97-.31.13-.61.27-.92.4-6.48,2.8-13,5.57-19.22,7.91-.35.12-.69.25-1.04.38-11,4.07-20.99,6.73-28.05,5.85a.556.556,0,0,1-.37-.19,1.649,1.649,0,0,1-.25-1.18c.23-4.39,7.49-18.58,19.95-30.78.31-.3.63-.61.95-.91a76.719,76.719,0,0,1,15.12-11.32c.52-.29,1.05-.58,1.59-.86A60.56,60.56,0,0,1,166,372a41.285,41.285,0,0,1,15.14-2.82c.52,0,1.04.01,1.55.03,20.58.64,38.89,14.78,41.01,19.57v.01A1.289,1.289,0,0,1,223.78,390Z"/><path class="cls-10" d="M223.78,390a.71.71,0,0,1-.18-.08c-.11-.09-12.14-8.39-30.48-8.86-.16,0-.32-.01-.49-.01-.42-.01-.84-.01-1.27-.01a64.9,64.9,0,0,0-13.59,1.49h-.01v.01c-.5.1-1.01.22-1.52.34a.01.01,0,0,1-.01.01,77.8,77.8,0,0,0-20.2,8.08c-.55.31-1.11.63-1.67.96-9.97,5.91-20.65,14.75-31.56,27.75a.371.371,0,0,1-.17.13,1.649,1.649,0,0,1-.25-1.18c10.59-12.55,20.97-21.21,30.7-27.1h.01c.88-.53,1.74-1.04,2.61-1.52a79.9,79.9,0,0,1,18.81-7.72h.01c1.04-.27,2.06-.51,3.06-.73a65.766,65.766,0,0,1,12.49-1.49c.84-.03,1.66-.03,2.46-.01.22,0,.45.01.67.01a62.343,62.343,0,0,1,30.5,8.71v.01A1.289,1.289,0,0,1,223.78,390Z"/><path class="cls-10" d="M177.89,382.37a1.859,1.859,0,0,0-.12.16l-.01.01c-1.19,1.52-9.79,13.13-5.53,22.91v.01c-.31.13-.61.27-.92.4v-.01c-4.02-9.21,2.46-19.53,4.92-22.96a.01.01,0,0,0,.01-.01c.1-.15.2-.28.29-.4-.52-.04-1.2-.1-2.01-.19h-.01c-5.2-.51-15.2-1.9-16.29-4.99a1.977,1.977,0,0,1,.18-1.68c.52-.29,1.05-.58,1.59-.86a.489.489,0,0,1-.09.6c-.99.9-.8,1.43-.74,1.6.89,2.52,11.74,4.15,18.37,4.59a.09.09,0,0,1,.05.01.5.5,0,0,1,.38.29A.541.541,0,0,1,177.89,382.37Z"/><path class="cls-10" d="M156.14,390.76a1.372,1.372,0,0,0-.11.21c-1.16,2.05-10.18,18.55-4.14,22.55a.489.489,0,0,1,.2.25c-.35.12-.69.25-1.04.38-5.51-4.23.81-17.49,3.31-22.22.13-.26.26-.49.37-.69-.45.09-1,.2-1.64.29h-.01c-3.1.49-7.92.87-9.87-1.06a3.067,3.067,0,0,1-.88-2.62c.31-.3.63-.61.95-.91a.459.459,0,0,1,.14.45,2.348,2.348,0,0,0,.49,2.37c2.09,2.06,9.14.89,11.68.27a.359.359,0,0,1,.11-.02.511.511,0,0,1,.41.2A.482.482,0,0,1,156.14,390.76Z"/><path class="cls-10" d="M192.78,380.88c-.01.01-.06.07-.15.17-1.14,1.38-8.42,10.63-3.44,16.93a.329.329,0,0,1,.07.13c-.31.12-.62.25-.93.38-4.87-6.34.95-14.8,3.03-17.45.08-.11.16-.2.23-.29-.39-.17-.91-.4-1.52-.68-3.66-1.72-10.49-5.33-10.52-8.5a2.741,2.741,0,0,1,1.59-2.39c.52,0,1.04.01,1.55.03a.5.5,0,0,1-.3.43c-1.23.55-1.85,1.19-1.84,1.91.03,2.9,8.6,7.09,11.98,8.51a.488.488,0,0,1,.07.03.47.47,0,0,1,.29.35A.477.477,0,0,1,192.78,380.88Z"/><path class="cls-9" d="M416.63,460.17a2.952,2.952,0,0,1-.69.72,3.192,3.192,0,0,1-3.43.37,167.083,167.083,0,0,0-35.25-12.19h-.01c-.44-.11-.88-.21-1.33-.31-3.98-.88-8.19-1.67-12.61-2.33a72.8,72.8,0,0,1-12.55-3.05c-.39-.13-.78-.26-1.16-.4a90.86,90.86,0,0,1-18.14-8.92c-.36-.23-.72-.45-1.07-.69a120.267,120.267,0,0,1-22.85-19.41,3.237,3.237,0,0,1-.84-1.89,2.79,2.79,0,0,1,.08-1,3.223,3.223,0,0,1,2.09-2.39,131.508,131.508,0,0,1,43.98-7.47c.37,0,.73,0,1.1.01a110.577,110.577,0,0,1,14.58,1.17,36.892,36.892,0,0,1,13.61,5.01c.28.17.57.34.85.52a62.594,62.594,0,0,1,15.92,15.18c.33.41.64.83.95,1.25,8.42,11.44,14.09,24.64,17.14,32.84A3.166,3.166,0,0,1,416.63,460.17Z"/><path class="cls-10" d="M416.63,460.17a2.952,2.952,0,0,1-.69.72l-.03-.03c-10.87-14.01-24.84-24-39.13-31.12-.89-.44-1.78-.88-2.67-1.3h-.01a156.548,156.548,0,0,0-17.2-6.89c-.61-.21-1.21-.41-1.82-.6a186.747,186.747,0,0,0-19.86-5.23c-.47-.1-.93-.19-1.38-.28h-.01a170.843,170.843,0,0,0-27.13-3.37,2.79,2.79,0,0,1,.08-1,173.92,173.92,0,0,1,27.14,3.37c1.02.21,2.06.42,3.12.65a185.471,185.471,0,0,1,18.03,4.82c1.13.35,2.26.73,3.4,1.12h.01a158.108,158.108,0,0,1,15.66,6.34c1.31.61,2.61,1.25,3.92,1.92h.01C392.16,436.42,405.89,446.35,416.63,460.17Z"/><path class="cls-10" d="M398.48,428.51c-3.81,3.64-14.52,2.03-20.41.78h-.01c-.83-.18-1.56-.35-2.16-.49.27.28.56.59.88.94,2.77,3.03,7,8.57,6.1,13.37-.49,2.58-2.38,4.57-5.62,5.96h-.01c-.44-.11-.88-.21-1.33-.31a.531.531,0,0,1,.31-.36c3.31-1.25,5.22-3.09,5.67-5.48,1.07-5.75-6.37-13.13-7.79-14.48h-.01c-.13-.13-.21-.2-.22-.21a.491.491,0,0,1,.26-.86.458.458,0,0,1,.2.01c.19.05,18.6,5.03,23.45.41a4.108,4.108,0,0,0,.93-4.19.477.477,0,0,1,.19-.5c.33.41.64.83.95,1.25A4.762,4.762,0,0,1,398.48,428.51Z"/><path class="cls-10" d="M358.47,421.03q-.99,0-2.04-.06c.15.17.3.37.47.58,1.81,2.3,4.7,6.88,3.76,11.78-.8,4.11-4.12,7.49-9.9,10.05-.39-.13-.78-.26-1.16-.4a.515.515,0,0,1,.28-.3c5.75-2.45,9.05-5.66,9.79-9.54,1.09-5.61-3.54-11.04-4.59-12.19-.13-.14-.2-.21-.21-.22a.489.489,0,0,1-.1-.56.483.483,0,0,1,.3-.26.645.645,0,0,1,.2-.03c20.13,1.82,26.78-12.29,26.84-12.43a.219.219,0,0,1,.03-.05c.28.17.57.34.85.52-.47.96-6.85,13.26-24.51,13.11Z"/><path class="cls-10" d="M354.74,407.48c-2.43,4.97-12.6,6.93-17.7,7.61-.85.11-1.56.19-2.07.24.08.12.16.25.25.39,1.63,2.62,5.29,9.29,3.24,13.94-1.04,2.37-3.4,3.84-7,4.4-.36-.23-.72-.45-1.07-.69a.471.471,0,0,1,.35-.22c3.57-.43,5.85-1.74,6.8-3.89,2.12-4.78-2.74-12.4-3.7-13.82h-.01c-.1-.15-.15-.23-.16-.24a.5.5,0,0,1-.04-.5.566.566,0,0,1,.29-.26l.12-.03c.17-.01,16.85-1.32,19.8-7.37.79-1.61.48-3.49-.91-5.56a.449.449,0,0,1-.08-.27c.37,0,.73,0,1.1.01C355.39,403.5,355.65,405.6,354.74,407.48Z"/></g></svg>